# xmcd CD database file
#
# Track frame offsets:
#	150
#	4547
#	16615
#	29947
#	42857
#	56707
#	69932
#	78922
#	91530
#	105892
#	117615
#	130555
#
# Disc length: 1869 seconds
#
# Revision: 0
# Processed by: cddbd v1.4PL0 Copyright (c) Steve Scherf et al.
# Submitted via: CDex 1.51
#
DISCID=83074b0c
DTITLE=Ralph Agresta - Modern Blues Jam Trax for Guitar
DYEAR=1997
DGENRE=Blues
TTITLE0=Tuning
TTITLE1=Another Joy
TTITLE2=Smokin' Solo
TTITLE3=Talk To Your Baby
TTITLE4=Slowhand Blues
TTITLE5=Unchained Blues
TTITLE6=Rotten To The Core
TTITLE7=Too Much Blues
TTITLE8=Still Got More Blues
TTITLE9=The Bonnie/Smith Shuffle
TTITLE10=No Apple Pies
TTITLE11=Mrs. Sippy
EXTD=YEAR: 1997
EXTT0=
EXTT1=
EXTT2=
EXTT3=
EXTT4=
EXTT5=
EXTT6=
EXTT7=
EXTT8=
EXTT9=
EXTT10=
EXTT11=
PLAYORDER=
